<?xml version="1.0" standalone="no"?><!DOCTYPE svg PUBLIC "-//W3C//DTD SVG 1.1//EN" "http://www.w3.org/Graphics/SVG/1.1/DTD/svg11.dtd"><svg t="1589441410701" class="icon" viewBox="0 0 1024 1024" version="1.1" xmlns="http://www.w3.org/2000/svg" p-id="6884" xmlns:xlink="http://www.w3.org/1999/xlink" width="128" height="128"><defs><style type="text/css"></style></defs><path d="M511.544107 1022.502067a511.055651 511.055651 0 1 1 511.055651-511.055651A511.055651 511.055651 0 0 1 511.544107 1022.502067z m0-958.221205a447.165554 447.165554 0 1 0 447.165554 447.165554A447.686574 447.686574 0 0 0 511.544107 64.541373z m-1.693315 768.048846h-3.907651c-195.382561 0-276.922216-175.844305-280.048337-183.594479a31.912485 31.912485 0 0 1 58.158875-26.441774c2.735356 5.991732 68.904916 146.146155 222.280227 146.146156h2.995866c162.8188-1.888698 228.337086-144.45284 228.988361-145.820518a31.912485 31.912485 0 1 1 58.614768 26.051008c-3.256376 7.35941-83.102716 181.315016-286.561089 183.724735z m160.864975-352.991159a63.694715 63.694715 0 1 1 63.694714-63.759843 63.694715 63.694715 0 0 1-63.694714 63.759843z m-319.124849 0a63.694715 63.694715 0 1 1 63.694715-63.759843 63.694715 63.694715 0 0 1-63.694715 63.759843z m0 0" p-id="6885" fill="#666666"></path></svg>