<?xml version="1.0" standalone="no"?><!DOCTYPE svg PUBLIC "-//W3C//DTD SVG 1.1//EN" "http://www.w3.org/Graphics/SVG/1.1/DTD/svg11.dtd"><svg t="1589441168785" class="icon" viewBox="0 0 1024 1024" version="1.1" xmlns="http://www.w3.org/2000/svg" p-id="2631" xmlns:xlink="http://www.w3.org/1999/xlink" width="128" height="128"><defs><style type="text/css"></style></defs><path d="M497.9375 62C257.159375 62 62 257.159375 62 497.9375S257.159375 933.875 497.9375 933.875 933.875 738.715625 933.875 497.9375 738.715625 62 497.9375 62z m378.984375 421.875h-168.6375c-1.546875-62.296875-12.628125-121.809375-32.2875-176.2875a459.39375 459.39375 0 0 0 105.075-61.790625A377.803125 377.803125 0 0 1 876.921875 483.875zM482.384375 876.8375c-46.74375-38.925-85.95-89.465625-114.6375-148.1625A435.853125 435.853125 0 0 1 483.875 709.578125v167.315625l-1.490625-0.05625z m31.05-757.8c53.04375 44.15625 96.328125 103.303125 125.60625 172.29375-40.10625 13.696875-82.715625 21.65625-127.06875 23.0625V118.953125l1.4625 0.084375z m46.85625 4.78125a378.646875 378.646875 0 0 1 201.4875 101.64375 430.228125 430.228125 0 0 1-96.4125 56.19375c-25.59375-60.665625-61.509375-114.3-105.075-157.8375zM483.875 118.953125v195.440625a435.7125 435.7125 0 0 1-127.06875-23.0625c29.278125-68.990625 72.5625-128.1375 125.60625-172.29375L483.875 118.953125zM330.48125 281.684375a431.296875 431.296875 0 0 1-96.384375-56.19375 378.5625 378.5625 0 0 1 201.4875-101.64375c-43.59375 43.509375-79.48125 97.14375-105.103125 157.8375z m15.721875 35.578125c43.36875 15.046875 89.578125 23.821875 137.671875 25.284375V483.875H315.715625c1.51875-58.89375 11.953125-115.171875 30.4875-166.6125zM483.875 512v169.453125a461.559375 461.559375 0 0 0-127.659375 21.628125A528.328125 528.328125 0 0 1 315.715625 512H483.875z m-48.290625 360.05625a377.746875 377.746875 0 0 1-184.078125-85.8375 427.471875 427.471875 0 0 1 89.6625-47.8125 487.040625 487.040625 0 0 0 94.415625 133.65z m76.415625 4.865625v-167.315625c40.275 1.29375 79.3125 7.59375 116.128125 19.096875-28.715625 58.696875-67.89375 109.2375-114.6375 148.1625a27.421875 27.421875 0 0 0-1.490625 0.05625z m142.70625-138.515625a430.875 430.875 0 0 1 89.6625 47.8125 378 378 0 0 1-184.078125 85.8375 487.63125 487.63125 0 0 0 94.415625-133.65z m-15.046875-35.325A461.925 461.925 0 0 0 512 681.453125V512h168.159375a528.91875 528.91875 0 0 1-40.5 191.08125zM512 483.875V342.546875a462.375 462.375 0 0 0 137.671875-25.25625c18.50625 51.440625 28.940625 107.71875 30.4875 166.6125H512zM214.83125 245.796875a459.84375 459.84375 0 0 0 105.046875 61.790625C300.21875 362.065625 289.1375 421.578125 287.590625 483.875H118.953125a377.690625 377.690625 0 0 1 95.878125-238.078125zM118.953125 512h168.6375a554.7375 554.7375 0 0 0 42.271875 200.728125 456.46875 456.46875 0 0 0-99.50625 54.309375A378.646875 378.646875 0 0 1 118.953125 512z m646.565625 255.009375a457.2 457.2 0 0 0-99.534375-54.309375 554.765625 554.765625 0 0 0 42.3-200.728125h168.6375a378.675 378.675 0 0 1-111.403125 255.0375z" fill="#666666" p-id="2632"></path></svg>