<?xml version="1.0" standalone="no"?><!DOCTYPE svg PUBLIC "-//W3C//DTD SVG 1.1//EN" "http://www.w3.org/Graphics/SVG/1.1/DTD/svg11.dtd"><svg t="1589441332568" class="icon" viewBox="0 0 1024 1024" version="1.1" xmlns="http://www.w3.org/2000/svg" p-id="4541" xmlns:xlink="http://www.w3.org/1999/xlink" width="128" height="128"><defs><style type="text/css"></style></defs><path d="M782.766981 449.528039v179.417988s0 36.253998-9.872999 82.307994c-9.872999 42.789997-31.274998 102.052993-79.008994 151.42999-59.213996 60.905996-146.49999 92.179994-258.437983 92.179994-110.282992 0-195.877987-31.273998-256.783982-92.179994-49.376997-49.376997-70.777995-111.925992-80.650995-154.680989-11.528999-47.733997-9.872999-83.950994-9.872999-85.594995V447.884039c146.48799 1.644 694.627953 1.644 694.627952 1.644m0-67.491995H88.139029c-37.860997 0-67.491995 29.630998-67.491995 67.491995v172.807988c0 4.942 0 47.733997 11.515999 102.052993 11.528999 51.032997 39.503997 126.754991 98.766993 187.659988 72.421995 74.065995 174.487988 111.926992 304.528979 111.926992s233.725984-37.836997 306.111979-111.901992c59.213996-60.905996 85.593994-133.339991 97.109994-182.717988 13.172999-52.675996 11.529999-92.179994 11.529999-98.765993V451.195039c0-37.859997-29.631998-69.134995-67.492996-69.134995z" p-id="4542" fill="#666666"></path><path d="M842.029977 497.262036h-37.861997v67.527995h37.860997c51.019997 0 93.823994-4.943 93.823994 46.089997v90.463994c0 51.032997-42.802997 93.823994-93.823994 93.823994h-55.974996c-6.574 21.401999-14.803999 44.446997-26.331998 67.491995h82.306994c88.880994 0 161.303989-72.421995 161.303989-161.315989v-90.499994c0-88.893994-27.975998-113.581992-161.303989-113.581992z m-590.931959-154.729989c-13.171999 0-24.699998-6.586-29.630998-18.126999a32.989998 32.989998 0 0 1 14.814999-44.446997c4.93-3.287 23.044998-14.814999 24.688998-27.974998s-9.872999-31.286998-31.274998-49.389997q-59.213996-51.841996-54.319996-108.638992c4.931-54.379996 54.319996-85.593994 59.213996-88.880994 16.471999-9.885999 36.253998-4.943 46.089997 11.515999s4.943 36.253998-11.515999 46.089997c0 0-26.343998 16.459999-27.986998 37.860997-1.644 19.757999 16.458999 39.503997 31.273997 52.675997q61.739996 54.307996 54.319997 108.639992c-6.586 51.019997-55.962996 77.339995-60.905996 79.007995-4.894 0.024-9.836999 1.668-14.766999 1.668z m204.069986 9.872999c-13.171999 0-24.687998-6.574-29.629998-18.126999a33.002998 33.002998 0 0 1 14.814999-44.446997c4.943-3.287 23.044998-14.802999 24.688998-27.974998s-9.872999-31.274998-31.274998-49.389997q-59.213996-51.841996-54.319996-108.626992c4.943-54.379996 54.319996-85.605994 59.213996-88.892994 16.459999-9.872999 36.253998-4.943 46.089997 11.527999s4.93 36.253998-11.527999 46.077997c0 0-26.331998 16.471999-27.975998 37.860997-1.655 19.757999 16.459999 39.503997 31.274997 52.675997q61.714996 54.379996 54.379997 108.639992c-6.586 51.032997-55.974996 77.339995-60.905996 79.007995-4.918 0.024-9.859999 1.668-14.826999 1.668z m177.811988 0c-13.171999 0-24.688998-6.574-29.631998-18.126999a33.002998 33.002998 0 0 1 14.815999-44.446997c4.943-3.287 23.044998-14.802999 24.688998-27.974998s-9.872999-31.274998-31.274998-49.389997q-59.213996-51.841996-54.319996-108.626992c4.943-54.379996 54.319996-85.605994 59.213996-88.892994 16.459999-9.872999 36.253998-4.943 46.089997 11.527999s4.93 36.253998-11.528 46.077997c0 0-26.331998 16.471999-27.987998 37.860997-1.643 19.757999 16.470999 39.503997 31.274998 52.675997q61.739996 54.379996 54.319997 108.639992c-6.574 51.032997-55.963996 77.339995-60.893996 79.007995-4.894 0.024-9.836999 1.668-14.766999 1.668z" p-id="4543" fill="#666666"></path></svg>