<?xml version="1.0" standalone="no"?><!DOCTYPE svg PUBLIC "-//W3C//DTD SVG 1.1//EN" "http://www.w3.org/Graphics/SVG/1.1/DTD/svg11.dtd"><svg t="1589441266844" class="icon" viewBox="0 0 1024 1024" version="1.1" xmlns="http://www.w3.org/2000/svg" p-id="3523" xmlns:xlink="http://www.w3.org/1999/xlink" width="128" height="128"><defs><style type="text/css"></style></defs><path d="M512 96C229.696 96 0 325.696 0 608c0 90.368 30.304 174.496 85.344 236.896 55.264 62.624 129.152 97.12 208.128 97.12 81.568 0 161.536-36.832 231.264-106.592l2.272-2.496c65.792-81.472 132.896-121.056 205.088-121.056 46.72 0 89.216 15.872 126.688 29.92 30.336 11.328 56.576 21.12 81.216 21.12C1024 762.912 1024 654.336 1024 608c0-282.304-229.696-512-512-512z m428 602.912c-13.088 0-35.296-8.288-58.784-17.088-40.48-15.136-90.848-33.952-149.12-33.952-92.352 0-175.328 46.944-253.76 143.456-57.184 56.704-121.056 86.688-184.832 86.688-60.352 0-117.216-26.784-160.128-75.456C88.64 751.872 64 682.784 64 608 64 360.96 264.96 160 512 160s448 200.96 448 448c0 27.328-1.952 90.912-20 90.912z" p-id="3524" fill="#666666"></path><path d="M800.704 516.064m-64 0a64 64 0 1 0 128 0 64 64 0 1 0-128 0Z" p-id="3525" fill="#666666"></path><path d="M457.024 313.376m-64 0a64 64 0 1 0 128 0 64 64 0 1 0-128 0Z" p-id="3526" fill="#666666"></path><path d="M672.704 340.064m-64 0a64 64 0 1 0 128 0 64 64 0 1 0-128 0Z" p-id="3527" fill="#666666"></path><path d="M291.392 452.064m-64 0a64 64 0 1 0 128 0 64 64 0 1 0-128 0Z" p-id="3528" fill="#666666"></path><path d="M278.4 698.752m-96 0a96 96 0 1 0 192 0 96 96 0 1 0-192 0Z" p-id="3529" fill="#666666"></path></svg>