<?xml version="1.0" standalone="no"?><!DOCTYPE svg PUBLIC "-//W3C//DTD SVG 1.1//EN" "http://www.w3.org/Graphics/SVG/1.1/DTD/svg11.dtd"><svg t="1589441374923" class="icon" viewBox="0 0 1024 1024" version="1.1" xmlns="http://www.w3.org/2000/svg" p-id="5402" xmlns:xlink="http://www.w3.org/1999/xlink" width="128" height="128"><defs><style type="text/css"></style></defs><path d="M454.6048 485.1712H151.7568A151.552 151.552 0 0 1 0.3072 333.568V30.3104A30.3104 30.3104 0 0 1 30.5664 0h302.8992A151.552 151.552 0 0 1 484.864 151.6032v303.2576a30.3104 30.3104 0 0 1-30.3104 30.3104z m-393.728-424.5504v272.896c0 50.2784 40.704 90.9824 90.88 90.9824h272.5376v-272.896c0-50.2272-40.6528-90.9824-90.8288-90.9824H60.8768zM333.1584 1024H30.3104A30.3104 30.3104 0 0 1 0 993.6896v-303.2576a151.552 151.552 0 0 1 151.4496-151.552h302.848c16.7424 0 30.3104 13.5168 30.3104 30.2592v303.2576A151.552 151.552 0 0 1 333.1584 1024z m-272.5888-60.6208h272.5888c50.176 0 90.88-40.7552 90.88-90.9824v-272.896H151.4496c-50.176 0-90.88 40.704-90.88 90.9312v272.896zM993.6896 1024h-302.848a151.552 151.552 0 0 1-151.4496-151.6032v-303.2576c0-16.7424 13.568-30.3104 30.3104-30.3104h302.848A151.552 151.552 0 0 1 1024 690.432v303.2576a30.3104 30.3104 0 0 1-30.3104 30.3104z m-393.728-424.4992v272.896c0 50.2272 40.704 90.9824 90.88 90.9824h272.5888v-272.896c0-50.2784-40.704-90.9824-90.88-90.9824h-272.5888z m272.2816-114.3296h-302.848a30.3104 30.3104 0 0 1-30.3104-30.3104V151.552A151.552 151.552 0 0 1 690.5344 0h302.8992c16.6912 0 30.2592 13.568 30.2592 30.3104v303.2576a151.552 151.552 0 0 1-151.4496 151.552zM599.7056 424.448h272.5376c50.176 0 90.88-40.704 90.88-90.9312v-272.896h-272.5888c-50.176 0-90.8288 40.704-90.8288 90.9312v272.896z" p-id="5403" fill="#666666"></path></svg>