<?xml version="1.0" standalone="no"?><!DOCTYPE svg PUBLIC "-//W3C//DTD SVG 1.1//EN" "http://www.w3.org/Graphics/SVG/1.1/DTD/svg11.dtd"><svg t="1586744411037" class="icon" viewBox="0 0 1024 1024" version="1.1" xmlns="http://www.w3.org/2000/svg" p-id="2906" xmlns:xlink="http://www.w3.org/1999/xlink" width="128" height="128"><defs><style type="text/css"></style></defs><path d="M 925.156 734.948 a 483.556 483.556 0 1 0 -833.024 -11.3778 a 32.256 32.256 0 0 0 55.9787 -32.0853 a 419.1 419.1 0 1 1 722.034 9.84178 a 32.256 32.256 0 0 0 55.0116 33.5644 Z m -165.262 -114.745 a 290.133 290.133 0 1 0 -499.826 -6.82667 a 32.256 32.256 0 0 0 55.9787 -32.0853 a 225.678 225.678 0 1 1 388.836 5.29067 a 32.256 32.256 0 1 0 55.0116 33.5644 Z m -155.591 -96.8818 l -9.95555 338.091 a 32.4267 32.4267 0 0 1 -0.910223 6.59911 c 0.568889 4.43733 0.853333 8.93156 0.853334 13.4827 c 0 72.2489 -70.2578 127.26 -153.6 127.26 c -83.2853 0 -153.486 -55.0116 -153.486 -127.26 s 70.2009 -127.204 153.543 -127.204 c 33.9627 0 65.7636 9.10222 91.5342 24.8604 L 540.473 500.281 a 32.256 32.256 0 0 1 17.408 -27.7049 a 32.0853 32.0853 0 0 1 12.7431 -6.25778 c 3.41333 -0.853333 28.4444 -9.27289 39.0258 -12.2311 c 13.5396 -3.69778 27.9324 -6.76978 44.4871 -9.216 a 32.256 32.256 0 1 1 9.38667 63.7724 c -13.8809 2.048 -25.7138 4.55111 -36.7502 7.62311 c -4.20978 1.13778 -13.5964 4.20978 -22.4711 7.05422 Z" fill="#d81e06" p-id="2907"></path></svg>