<?xml version="1.0" standalone="no"?><!DOCTYPE svg PUBLIC "-//W3C//DTD SVG 1.1//EN" "http://www.w3.org/Graphics/SVG/1.1/DTD/svg11.dtd"><svg t="1586744525199" class="icon" viewBox="0 0 1024 1024" version="1.1" xmlns="http://www.w3.org/2000/svg" p-id="3664" xmlns:xlink="http://www.w3.org/1999/xlink" width="128" height="128"><defs><style type="text/css"></style></defs><path d="M736.8 193.7c27.6 0 50 25.9 50 57.8V773c0 31.9-22.4 57.8-50 57.8H285.9c-27.6 0-50-25.9-50-57.8V251.5c0-31.9 22.4-57.8 50-57.8h450.9m0-40H285.9c-46.7 0-84.5 43.8-84.5 97.8V773c0 54 37.9 97.8 84.5 97.8h450.9c46.7 0 84.5-43.8 84.5-97.8V251.5c0.1-54-37.7-97.8-84.5-97.8z" fill="#d81e06" p-id="3665"></path><path d="M314.1 789.3c0 9-6.3 16.3-14.1 16.3h-28.2c-7.8 0-14.1-7.3-14.1-16.3v-32.6c0-9 6.3-16.3 14.1-16.3H300c7.8 0 14.1 7.3 14.1 16.3v32.6zM314.1 658.9c0 9-6.3 16.3-14.1 16.3h-28.2c-7.8 0-14.1-7.3-14.1-16.3v-32.6c0-9 6.3-16.3 14.1-16.3H300c7.8 0 14.1 7.3 14.1 16.3v32.6zM314.1 528.6c0 9-6.3 16.3-14.1 16.3h-28.2c-7.8 0-14.1-7.3-14.1-16.3V496c0-9 6.3-16.3 14.1-16.3H300c7.8 0 14.1 7.3 14.1 16.3v32.6zM314.1 398.2c0 9-6.3 16.3-14.1 16.3h-28.2c-7.8 0-14.1-7.3-14.1-16.3v-32.6c0-9 6.3-16.3 14.1-16.3H300c7.8 0 14.1 7.3 14.1 16.3v32.6zM314.1 267.9c0 9-6.3 16.3-14.1 16.3h-28.2c-7.8 0-14.1-7.3-14.1-16.3v-32.6c0-9 6.3-16.3 14.1-16.3H300c7.8 0 14.1 7.3 14.1 16.3v32.6zM617.6 473.7c-7.3-5.3-41.1-27.1-88-57.3-21.3-13.7-45.4-29.2-48.7-31.5-7.6-5.4-16.3-8.3-25.3-8.3-13.2 0-25.6 6.2-34 17.1-6.5 8.5-10.1 19.3-10.1 30.4v177.5c0 26.4 19.4 47.1 44.2 47.1 8.8 0 17.2-2.7 24.5-7.7 4-2.7 29.9-19.4 54.9-35.6 54.2-34.9 77.6-50.1 82.7-53.8 12-8.9 19.2-23.6 19.1-39.2-0.1-15.4-7.3-29.9-19.3-38.7z m-21 49.4c-4.6 3.4-37.8 24.8-80.7 52.5l-0.4 0.3c-31.7 20.5-51.3 33.1-55.4 35.9-1.4 0.9-2.8 1.4-4.3 1.4-5.7 0-8.7-5.8-8.7-11.5V424.2c0-3.3 1-6.4 2.7-8.7 1.1-1.5 3.1-3.2 5.8-3.2 1.5 0 3.1 0.6 4.7 1.7l0.4 0.3c3.3 2.3 17.3 11.3 49.7 32.2 35.3 22.7 79.3 51.1 86.3 56.1 2.9 2.1 4.7 6 4.7 10.1-0.1 4.2-1.9 8.2-4.8 10.4zM765 789.3c0 9-6.3 16.3-14.1 16.3h-28.2c-7.8 0-14.1-7.3-14.1-16.3v-32.6c0-9 6.3-16.3 14.1-16.3h28.2c7.8 0 14.1 7.3 14.1 16.3v32.6zM765 658.9c0 9-6.3 16.3-14.1 16.3h-28.2c-7.8 0-14.1-7.3-14.1-16.3v-32.6c0-9 6.3-16.3 14.1-16.3h28.2c7.8 0 14.1 7.3 14.1 16.3v32.6zM765 528.6c0 9-6.3 16.3-14.1 16.3h-28.2c-7.8 0-14.1-7.3-14.1-16.3V496c0-9 6.3-16.3 14.1-16.3h28.2c7.8 0 14.1 7.3 14.1 16.3v32.6zM765 398.2c0 9-6.3 16.3-14.1 16.3h-28.2c-7.8 0-14.1-7.3-14.1-16.3v-32.6c0-9 6.3-16.3 14.1-16.3h28.2c7.8 0 14.1 7.3 14.1 16.3v32.6zM765 267.9c0 9-6.3 16.3-14.1 16.3h-28.2c-7.8 0-14.1-7.3-14.1-16.3v-32.6c0-9 6.3-16.3 14.1-16.3h28.2c7.8 0 14.1 7.3 14.1 16.3v32.6z" fill="#d81e06" p-id="3666"></path></svg>