<?xml version="1.0" standalone="no"?><!DOCTYPE svg PUBLIC "-//W3C//DTD SVG 1.1//EN" "http://www.w3.org/Graphics/SVG/1.1/DTD/svg11.dtd"><svg t="1586744650366" class="icon" viewBox="0 0 1024 1024" version="1.1" xmlns="http://www.w3.org/2000/svg" p-id="5425" xmlns:xlink="http://www.w3.org/1999/xlink" width="128" height="128"><defs><style type="text/css"></style></defs><path d="M237.781 933.875c-80.54 0-147.656-65.199-147.656-147.656s65.199-147.657 147.656-147.657c32.6 0 63.281 11.506 90.128 30.682l7.67 5.753v-473.65c0-28.765 23.012-51.776 49.859-51.776l492.826-57.528h3.835c26.847-1.918 51.776 21.093 51.776 49.858v554.19c0 40.27-15.34 76.704-44.105 103.551-26.847 26.847-65.199 42.188-103.551 42.188-80.54 0-147.657-65.2-147.657-147.657 0-80.54 65.2-147.656 147.657-147.656 32.6 0 65.199 11.506 90.128 30.682l7.67 5.753v-256.96l-498.58 53.693v406.534c-1.917 82.457-67.116 147.656-147.656 147.656z m0-243.537c-53.693 0-97.798 44.105-97.798 97.798s44.105 97.799 97.798 97.799 97.799-44.105 97.799-97.799c-1.918-55.61-44.106-97.798-97.799-97.798z m548.438-92.045c-53.693 0-97.799 44.105-97.799 97.798s44.106 97.798 97.799 97.798 97.798-44.105 97.798-97.798-44.105-97.798-97.798-97.798z m-402.7-268.466l498.58-53.693V139.983l-492.826 57.528h-5.753v132.316z" p-id="5426" fill="#d81e06"></path></svg>