<?xml version="1.0" standalone="no"?><!DOCTYPE svg PUBLIC "-//W3C//DTD SVG 1.1//EN" "http://www.w3.org/Graphics/SVG/1.1/DTD/svg11.dtd"><svg t="1586744571589" class="icon" viewBox="0 0 1024 1024" version="1.1" xmlns="http://www.w3.org/2000/svg" p-id="4511" xmlns:xlink="http://www.w3.org/1999/xlink" width="128" height="128"><defs><style type="text/css"></style></defs><path d="M511.957334-0.042666a511.996373 511.996373 0 0 0-346.578879 888.86837l0.426664 0.383997a237.608984 237.608984 0 0 0-140.500338 20.735854 33.109099 33.109099 0 0 0-15.914554 32.639768c3.669307 20.053191 17.621209 20.522521 30.677116 18.261204a486.396555 486.396555 0 0 1 234.110342 4.6933A511.996373 511.996373 0 1 0 511.957334-0.042666z m191.05998 177.662741a142.036327 142.036327 0 1 1-142.036328 142.036327 142.036327 142.036327 0 0 1 142.078994-141.99366z m-372.136031 0a142.036327 142.036327 0 1 1-141.993661 142.078994 142.036327 142.036327 0 0 1 142.036327-142.036327z m0 666.320614a142.036327 142.036327 0 1 1 142.036327-142.036327 142.036327 142.036327 0 0 1-141.865662 142.078993z m181.076051-249.342234a82.602082 82.602082 0 1 1 82.687414-82.644748 82.602082 82.602082 0 0 1-82.687414 82.644748z m191.187979 249.3849a142.036327 142.036327 0 1 1 142.036327-142.036327 142.036327 142.036327 0 0 1-141.993661 142.036327z" p-id="4512" fill="#d81e06"></path></svg>