<?xml version="1.0" standalone="no"?><!DOCTYPE svg PUBLIC "-//W3C//DTD SVG 1.1//EN" "http://www.w3.org/Graphics/SVG/1.1/DTD/svg11.dtd"><svg t="1586744232406" class="icon" viewBox="0 0 1024 1024" version="1.1" xmlns="http://www.w3.org/2000/svg" p-id="2063" xmlns:xlink="http://www.w3.org/1999/xlink" width="128" height="128"><defs><style type="text/css"></style></defs><path d="M64 512h128a64 64 0 0 1 64 64v384a64 64 0 0 1-64 64H64a64 64 0 0 1-64-64V576a64 64 0 0 1 64-64zM448 0h128a64 64 0 0 1 64 64v896a64 64 0 0 1-64 64H448a64 64 0 0 1-64-64V64a64 64 0 0 1 64-64z m384 256h128a64 64 0 0 1 64 64v640a64 64 0 0 1-64 64H832a64 64 0 0 1-64-64V320a64 64 0 0 1 64-64z" p-id="2064" fill="#d81e06"></path></svg>